<svg xmlns="http://www.w3.org/2000/svg" xmlns:svg="http://www.w3.org/2000/svg" id="Layer_1" width="744.094" height="1052.362" x="0" y="0" enable-background="new 0 0 100 100" version="1.1" viewBox="0 0 744.094 1052.362" xml:space="preserve"><metadata id="metadata31"/><rect style="fill:#ff2518;fill-opacity:1;stroke:none" id="rect3010" width="100.529" height="100.529" x="285.038" y="853.469" ry="0"/><path id="path3" d="m 358.0121,863.78303 c -26.21498,25.52097 -42.44443,40.17182 -44.8828,42.75328 -2.43562,2.57856 -3.34681,5.67817 -2.03462,6.91761 1.31508,1.24218 4.35556,0.15384 6.79118,-2.42472 2.43841,-2.58005 17.58167,-20.61737 40.12624,-47.24617 z m -45.03939,47.90546 c -0.63102,-0.59604 0.0645,-2.35181 1.54636,-3.92061 1.48458,-1.5717 3.19723,-2.36399 3.82751,-1.76865 0.62737,0.5926 -0.0668,2.34691 -1.55137,3.91862 -1.48184,1.5688 -3.19514,2.36323 -3.8225,1.77064 z" style="stroke:#fff;stroke-width:10.00000017;stroke-linejoin:round;stroke-miterlimit:4;stroke-opacity:1;stroke-dasharray:none"/><path style="fill:#fff;fill-opacity:1;stroke:none" id="path3804" d="m 344.50728,870.15409 86.99808,-84.46932 -76.09871,88.87815 z"/><g id="g5" transform="matrix(0.72696901,0.68667028,-0.68667028,0.72696901,343.54314,849.93868)" style="stroke:#fff;stroke-width:10.00000009;stroke-linejoin:round;stroke-miterlimit:4;stroke-opacity:1;stroke-dasharray:none"><path id="path7" d="m 28.409,83.23 c -0.605,0 -2.667,-0.168 -4.76,-2.105 -3.259,-3.02 -4.914,-8.717 -4.914,-16.933 0,-0.726 0.586,-1.312 1.312,-1.312 0.726,0 1.312,0.587 1.312,1.312 0,9.182 2.17,13.187 3.99,14.93 1.598,1.527 3.082,1.484 3.15,1.481 2.43,-0.004 4.385,-0.84 6.059,-2.559 6.132,-6.294 5.795,-21.761 5.79,-21.916 -0.019,-0.725 0.554,-1.328 1.277,-1.348 0.739,-0.017 1.327,0.554 1.347,1.277 0.021,0.678 0.372,16.724 -6.531,23.815 -2.162,2.224 -4.809,3.351 -7.862,3.351 -0.021,0.005 -0.079,0.007 -0.17,0.007 z" style="fill:#000;stroke:#fff;stroke-width:10.00000009;stroke-linejoin:round;stroke-miterlimit:4;stroke-opacity:1;stroke-dasharray:none"/></g><g id="g9" transform="matrix(0.72696901,0.68667028,-0.68667028,0.72696901,343.54314,849.93868)" style="stroke:#fff;stroke-width:10.00000009;stroke-linejoin:round;stroke-miterlimit:4;stroke-opacity:1;stroke-dasharray:none"><polygon id="polygon11" points="40.018 40.39 40.018 50.48 78.706 41.387 78.706 40.39" style="stroke:#fff;stroke-width:10.00000009;stroke-linejoin:round;stroke-miterlimit:4;stroke-opacity:1;stroke-dasharray:none"/><polygon id="polygon13" points="40.018 83.746 40.018 88.141 48.933 88.141 78.706 81.142 78.706 74.652" style="stroke:#fff;stroke-width:10.00000009;stroke-linejoin:round;stroke-miterlimit:4;stroke-opacity:1;stroke-dasharray:none"/><polygon id="polygon15" points="40.018 69.857 78.706 60.764 78.706 54.273 40.018 63.366" style="stroke:#fff;stroke-width:10.00000009;stroke-linejoin:round;stroke-miterlimit:4;stroke-opacity:1;stroke-dasharray:none"/><polygon id="polygon17" points="40.018 54.179 40.018 60.671 78.706 51.577 78.706 45.085" style="stroke:#fff;stroke-width:10.00000009;stroke-linejoin:round;stroke-miterlimit:4;stroke-opacity:1;stroke-dasharray:none"/><polygon id="polygon19" points="78.706 70.954 78.706 64.462 40.018 73.556 40.018 80.048" style="stroke:#fff;stroke-width:10.00000009;stroke-linejoin:round;stroke-miterlimit:4;stroke-opacity:1;stroke-dasharray:none"/><polygon id="polygon21" points="78.706 88.141 78.706 83.839 60.41 88.141" style="stroke:#fff;stroke-width:10.00000009;stroke-linejoin:round;stroke-miterlimit:4;stroke-opacity:1;stroke-dasharray:none"/><rect id="rect23" width="49.222" height="8.95" x="34.752" y="29.222" style="fill:#000;stroke:#fff;stroke-width:10.00000009;stroke-linejoin:round;stroke-miterlimit:4;stroke-opacity:1;stroke-dasharray:none"/><rect id="rect25" width="49.222" height="8.948" x="34.752" y="89.947" style="fill:#000;stroke:#fff;stroke-width:10.00000009;stroke-linejoin:round;stroke-miterlimit:4;stroke-opacity:1;stroke-dasharray:none"/></g><path id="path3780" d="m 357.90085,863.90864 c -26.21499,25.52096 -42.44444,40.17182 -44.8828,42.75328 -2.43563,2.57856 -3.34682,5.67817 -2.03463,6.9176 1.31508,1.24219 4.35556,0.15384 6.79118,-2.42472 2.43841,-2.58005 17.58168,-20.61736 40.12625,-47.24616 z m -45.0394,47.90546 c -0.63102,-0.59604 0.0645,-2.35181 1.54637,-3.92061 1.48457,-1.5717 3.19723,-2.364 3.82751,-1.76866 0.62737,0.5926 -0.0668,2.34692 -1.55138,3.91863 -1.48183,1.5688 -3.19513,2.36323 -3.8225,1.77064 z"/><g id="g3782" transform="matrix(0.72696901,0.68667028,-0.68667028,0.72696901,343.43188,850.06429)"><path style="fill:#000" id="path3784" d="m 28.409,83.23 c -0.605,0 -2.667,-0.168 -4.76,-2.105 -3.259,-3.02 -4.914,-8.717 -4.914,-16.933 0,-0.726 0.586,-1.312 1.312,-1.312 0.726,0 1.312,0.587 1.312,1.312 0,9.182 2.17,13.187 3.99,14.93 1.598,1.527 3.082,1.484 3.15,1.481 2.43,-0.004 4.385,-0.84 6.059,-2.559 6.132,-6.294 5.795,-21.761 5.79,-21.916 -0.019,-0.725 0.554,-1.328 1.277,-1.348 0.739,-0.017 1.327,0.554 1.347,1.277 0.021,0.678 0.372,16.724 -6.531,23.815 -2.162,2.224 -4.809,3.351 -7.862,3.351 -0.021,0.005 -0.079,0.007 -0.17,0.007 z"/></g><g id="g3786" transform="matrix(0.72696901,0.68667028,-0.68667028,0.72696901,343.43188,850.06429)"><polygon id="polygon3788" points="40.018 50.48 78.706 41.387 78.706 40.39 40.018 40.39"/><polygon id="polygon3790" points="48.933 88.141 78.706 81.142 78.706 74.652 40.018 83.746 40.018 88.141"/><polygon id="polygon3792" points="78.706 60.764 78.706 54.273 40.018 63.366 40.018 69.857"/><polygon id="polygon3794" points="40.018 60.671 78.706 51.577 78.706 45.085 40.018 54.179"/><polygon id="polygon3796" points="78.706 64.462 40.018 73.556 40.018 80.048 78.706 70.954"/><polygon id="polygon3798" points="60.41 88.141 78.706 88.141 78.706 83.839"/><rect style="fill:#000" id="rect3800" width="49.222" height="8.95" x="34.752" y="29.222"/><rect style="fill:#000" id="rect3802" width="49.222" height="8.948" x="34.752" y="89.947"/></g><rect style="fill:#fff;fill-opacity:1;stroke:none" id="rect3806" width="323.077" height="93.59" x="186.538" y="955.852"/><rect style="fill:#fff;fill-opacity:1;stroke:none" id="rect3835" width="20.929" height="1.884" x="-477.384" y="852.125" transform="matrix(0.6600738,-0.75120076,0.75201936,0.65914102,0,0)"/><rect id="rect3837" width="20.929" height="1.884" x="-467.01" y="905.685" transform="matrix(0.67122583,-0.74125292,0.74208537,0.67030538,0,0)" style="fill:#fff;fill-opacity:1;stroke:none"/><rect style="fill:#fff;fill-opacity:1;stroke:none" id="rect3841" width="6.796" height="5.243" x="305.437" y="932.945"/></svg>